<svg width="36" height="36" viewBox="0 0 36 36" fill="none" xmlns="http://www.w3.org/2000/svg">
<path d="M30.7826 4H5.21739C4.54504 4 4 4.54504 4 5.21739V10.087C4 10.7593 4.54504 11.3043 5.21739 11.3043H30.7826C31.455 11.3043 32 10.7593 32 10.087V5.21739C32 4.54504 31.455 4 30.7826 4Z" fill="#EDFCF1"/>
<path d="M30.7826 24.6957H5.21739C4.54504 24.6957 4 25.2407 4 25.913V30.7826C4 31.455 4.54504 32 5.21739 32H30.7826C31.455 32 32 31.455 32 30.7826V25.913C32 25.2407 31.455 24.6957 30.7826 24.6957Z" fill="#EDFCF1"/>
<path d="M30.7826 12.5217H5.21739C4.54504 12.5217 4 13.0668 4 13.7391V22.2609C4 22.9332 4.54504 23.4783 5.21739 23.4783H30.7826C31.455 23.4783 32 22.9332 32 22.2609V13.7391C32 13.0668 31.455 12.5217 30.7826 12.5217Z" fill="white"/>
<path d="M28.3478 8.86957L29.5652 7.65217L28.3478 6.43478M28.3478 29.5652L29.5652 28.3478L28.3478 27.1304M6.43478 14.9565H23.4783M6.43478 18.6087H22.2609M6.43478 21.0435H19.8261M27.1304 14.9565L28.3478 16.1739L29.5652 14.9565M5.21739 4H30.7826C31.455 4 32 4.54504 32 5.21739V10.087C32 10.7593 31.455 11.3043 30.7826 11.3043H5.21739C4.54504 11.3043 4 10.7593 4 10.087V5.21739C4 4.54504 4.54504 4 5.21739 4ZM5.21739 24.6957H30.7826C31.455 24.6957 32 25.2407 32 25.913V30.7826C32 31.455 31.455 32 30.7826 32H5.21739C4.54504 32 4 31.455 4 30.7826V25.913C4 25.2407 4.54504 24.6957 5.21739 24.6957ZM5.21739 12.5217H30.7826C31.455 12.5217 32 13.0668 32 13.7391V22.2609C32 22.9332 31.455 23.4783 30.7826 23.4783H5.21739C4.54504 23.4783 4 22.9332 4 22.2609V13.7391C4 13.0668 4.54504 12.5217 5.21739 12.5217Z" stroke="#05834E" stroke-width="0.6" stroke-linecap="round" stroke-linejoin="round"/>
</svg>
