<svg width="31" height="32" viewBox="0 0 31 32" fill="none" xmlns="http://www.w3.org/2000/svg">
<path d="M3.5 3C3.5 1.89543 4.39543 1 5.5 1H25.5C26.6046 1 27.5 1.89543 27.5 3V20C27.5 21.1046 26.6046 22 25.5 22H5.5C4.39543 22 3.5 21.1046 3.5 20V3Z" fill="#FFF6E7"/>
<path d="M3.5 8H2.5C1.39543 8 0.5 8.89543 0.5 10V25.7143C0.5 26.8189 1.39543 27.7143 2.5 27.7143H11.75M27.5 8H28.5C29.6046 8 30.5 8.89543 30.5 10V25.7143C30.5 26.8189 29.6046 27.7143 28.5 27.7143H19.25M11.75 27.7143V31M11.75 27.7143H19.25M11.75 31H6.59375M11.75 31H19.25M19.25 27.7143V31M19.25 31H23.9375M10.3182 13H7.5C6.94771 13 6.5 13.4477 6.5 14V18C6.5 18.5523 6.94772 19 7.5 19H11.5C12.0523 19 12.5 18.5523 12.5 18V16.8182M8 15.5L9.5 17L12.5 14M10.3182 4H7.5C6.94771 4 6.5 4.44772 6.5 5V9C6.5 9.55228 6.94772 10 7.5 10H11.5C12.0523 10 12.5 9.55228 12.5 9V7.81818M8 6.5L9.5 8L12.5 5M15 5H25M15 9H25M15 14H22M15 18H25M5.5 22H25.5C26.6046 22 27.5 21.1046 27.5 20V3C27.5 1.89543 26.6046 1 25.5 1H5.5C4.39543 1 3.5 1.89543 3.5 3V20C3.5 21.1046 4.39543 22 5.5 22Z" stroke="#C24E00" stroke-linecap="round" stroke-linejoin="round"/>
</svg>
