<svg width="28" height="32" viewBox="0 0 28 32" fill="none" xmlns="http://www.w3.org/2000/svg">
<path d="M27.25 29.125V8.5C27.25 7.46447 26.4185 6.625 25.3929 6.625H10.5357C9.51004 6.625 8.67857 7.46447 8.67857 8.5V29.125C8.67857 30.1605 9.51004 31 10.5357 31H25.3929C26.4185 31 27.25 30.1605 27.25 29.125Z" fill="#EEFAFE"/>
<path d="M12.0996 24.3984H23.8289C24.6387 24.3984 25.2951 25.0805 25.2951 25.9219C25.2951 26.7632 24.6387 27.4453 23.8289 27.4453H12.0996C11.2898 27.4453 10.6334 26.7632 10.6334 25.9219C10.6334 25.0805 11.2898 24.3984 12.0996 24.3984Z" fill="white"/>
<path d="M24.4643 16C24.4643 19.6244 21.5541 22.5625 17.9643 22.5625C14.3744 22.5625 11.4643 19.6244 11.4643 16C11.4643 12.3756 14.3744 9.4375 17.9643 9.4375C21.5541 9.4375 24.4643 12.3756 24.4643 16Z" fill="white"/>
<path d="M19.8214 3.8125H6.82143C5.79576 3.8125 4.96429 4.65197 4.96429 5.6875V25.375V26.3125C4.96429 27.348 5.79576 28.1875 6.82143 28.1875H8.67857V8.5C8.67857 7.46447 9.51004 6.625 10.5357 6.625H23.5357V5.6875C23.5357 4.65197 22.7042 3.8125 21.6786 3.8125H19.8214Z" fill="#EEFAFE"/>
<path d="M6.82143 3.8125H19.8214V2.875C19.8214 1.83947 18.99 1 17.9643 1H3.10714C2.08147 1 1.25 1.83947 1.25 2.875V23.5C1.25 24.5355 2.08147 25.375 3.10714 25.375H4.96429V5.6875C4.96429 4.65197 5.79576 3.8125 6.82143 3.8125Z" fill="#EEFAFE"/>
<path d="M10.5357 6.625C9.51004 6.625 8.67857 7.46447 8.67857 8.5M10.5357 6.625H25.3929M10.5357 6.625H23.5357M8.67857 8.5V29.125M8.67857 8.5V28.1875M25.3929 6.625C26.4185 6.625 27.25 7.46447 27.25 8.5V29.125C27.25 30.1605 26.4185 31 25.3929 31H10.5357C9.51004 31 8.67857 30.1605 8.67857 29.125M25.3929 6.625H23.5357M8.67857 29.125V28.1875M6.82143 3.8125H21.6786M6.82143 3.8125C5.79576 3.8125 4.96429 4.65197 4.96429 5.6875M6.82143 3.8125H19.8214M21.6786 3.8125C22.7042 3.8125 23.5357 4.65197 23.5357 5.6875V6.625M21.6786 3.8125H19.8214M4.96429 26.3125V5.6875M4.96429 26.3125C4.96429 27.348 5.79576 28.1875 6.82143 28.1875H8.67857M4.96429 26.3125V25.375M4.96429 5.6875V25.375M19.8214 3.8125V2.875C19.8214 1.83947 18.99 1 17.9643 1H3.10714C2.08147 1 1.25 1.83947 1.25 2.875V23.5C1.25 24.5355 2.08147 25.375 3.10714 25.375H4.96429M12.0996 24.3984H23.8289C24.6387 24.3984 25.2951 25.0805 25.2951 25.9219C25.2951 26.7632 24.6387 27.4453 23.8289 27.4453H12.0996C11.2898 27.4453 10.6334 26.7632 10.6334 25.9219C10.6334 25.0805 11.2898 24.3984 12.0996 24.3984ZM24.4643 16C24.4643 19.6244 21.5541 22.5625 17.9643 22.5625C14.3744 22.5625 11.4643 19.6244 11.4643 16C11.4643 12.3756 14.3744 9.4375 17.9643 9.4375C21.5541 9.4375 24.4643 12.3756 24.4643 16ZM20.7131 13.6848C20.5543 13.5271 20.3657 13.4021 20.1581 13.3167C19.9506 13.2314 19.7281 13.1875 19.5034 13.1875C19.2788 13.1875 19.0563 13.2314 18.8488 13.3167C18.6412 13.4021 18.4526 13.5271 18.2938 13.6848L17.9642 14.0118L17.6346 13.6848C17.3138 13.3665 16.8787 13.1877 16.425 13.1877C15.9713 13.1877 15.5361 13.3665 15.2153 13.6848C14.8945 14.0031 14.7143 14.4348 14.7143 14.885C14.7143 15.3351 14.8945 15.7668 15.2153 16.0851L17.9642 18.8125L20.7131 16.0851C20.872 15.9275 20.998 15.7404 21.084 15.5345C21.17 15.3286 21.2143 15.1079 21.2143 14.885C21.2143 14.6621 21.17 14.4413 21.084 14.2354C20.998 14.0295 20.872 13.8424 20.7131 13.6848Z" stroke="#0B78B3"/>
</svg>
