<svg width="37" height="36" viewBox="0 0 37 36" fill="none" xmlns="http://www.w3.org/2000/svg">
<path opacity="0.1" fill-rule="evenodd" clip-rule="evenodd" d="M4.35675 5.93091H32.9038C33.7322 5.93091 34.4038 6.60248 34.4038 7.43091V11.001H2.85675V7.43091C2.85675 6.60248 3.52832 5.93091 4.35675 5.93091Z" fill="#DA7B11"/>
<path opacity="0.1" fill-rule="evenodd" clip-rule="evenodd" d="M28.2071 30.1546H32.9038C33.7322 30.1546 34.4038 29.483 34.4038 28.6546V11.001H28.2071V30.1546Z" fill="#DA7B11"/>
<path d="M21.2564 19.0159H20.6631C20.5785 18.7515 20.4716 18.4947 20.3438 18.2483L20.7613 17.8308C21.2185 17.3759 21.2205 16.6364 20.7656 16.1791C20.7646 16.1782 20.7637 16.1772 20.7627 16.1763L20.209 15.6225C19.9914 15.4016 19.6944 15.2771 19.3843 15.2768H19.3784C19.0691 15.2777 18.7726 15.4003 18.553 15.6182L18.1348 16.0393C17.8884 15.9122 17.6319 15.8056 17.3679 15.7207V15.1274C17.367 14.4827 16.8445 13.9602 16.1997 13.9592H15.4123C14.7674 13.959 14.2444 14.4817 14.2441 15.1266V15.7134C13.9812 15.8017 13.7264 15.9125 13.4824 16.0444L13.0561 15.616C12.8384 15.3984 12.543 15.2764 12.2351 15.2769H12.23C11.9205 15.2777 11.6239 15.4012 11.4053 15.6204L10.845 16.1777C10.3926 16.636 10.3936 17.373 10.8472 17.8301L11.2676 18.249C11.1401 18.4953 11.0335 18.7518 10.949 19.0159H10.3557C9.71076 19.0156 9.18773 19.5383 9.1875 20.1832V20.9707C9.18849 21.6155 9.71094 22.1379 10.3557 22.1389H10.9482C11.0333 22.4034 11.1401 22.6604 11.2675 22.9072L10.8457 23.3298C10.3929 23.7862 10.3932 24.5225 10.8464 24.9785L11.406 25.5388C11.8644 25.9908 12.6012 25.9898 13.0583 25.5366L13.4773 25.1162C13.7236 25.2436 13.9801 25.3501 14.2441 25.4348V26.028C14.2451 26.6728 14.7676 27.1953 15.4123 27.1963H16.1997C16.8445 27.1953 17.3669 26.6728 17.3679 26.028V25.4348C17.632 25.3503 17.8885 25.2437 18.1348 25.1162L18.5559 25.5388C19.0146 25.991 19.7519 25.9897 20.209 25.5359L20.759 24.9822C21.2167 24.5318 21.2226 23.7956 20.7722 23.3379C20.7696 23.3352 20.7669 23.3325 20.7642 23.3298L20.3438 22.9072C20.4713 22.6604 20.5781 22.4034 20.6631 22.1389H21.2563C21.9011 22.1379 22.4236 21.6155 22.4245 20.9707V20.1841C22.4236 19.5393 21.9011 19.0169 21.2564 19.0159ZM15.8057 23.1584C14.3803 23.1583 13.225 22.0027 13.2251 20.5774C13.2253 19.152 14.3808 17.9967 15.8062 17.9968C17.2315 17.997 18.3869 19.1525 18.3867 20.5779C18.3906 21.999 17.2417 23.1545 15.8206 23.1584C15.8156 23.1585 15.8106 23.1585 15.8057 23.1584Z" fill="#DA7B11"/>
<path d="M35.0186 7.49634C35.0148 6.35942 34.093 5.43926 32.9561 5.4375H4.45239C3.31342 5.43981 2.39182 6.36469 2.39356 7.50366L2.43457 28.5037C2.43835 29.6406 3.36014 30.5607 4.49707 30.5625H33.0007C34.1397 30.5602 35.0613 29.6353 35.0596 28.4963L35.0186 7.49634ZM3.79174 6.83859C3.96655 6.66202 4.20466 6.56262 4.45312 6.5625H32.9561C33.473 6.56307 33.8922 6.98156 33.8936 7.4985L33.8998 10.6875H3.52478L3.51856 7.5022C3.51729 7.25338 3.61567 7.01439 3.79174 6.83859ZM3.55957 28.5015L3.52698 11.8125H27.1875V29.4375H4.49707C3.98012 29.4369 3.56096 29.0184 3.55957 28.5015ZM33.6614 29.1614C33.4858 29.3386 33.2465 29.438 32.9971 29.4375H28.3125V11.8125H33.902L33.9346 28.4978C33.9358 28.7466 33.8375 28.9856 33.6614 29.1614Z" fill="#DA7B11"/>
</svg>
