<svg width="36" height="20" viewBox="0 0 36 20" fill="none" xmlns="http://www.w3.org/2000/svg">
<path d="M4.15 13.625C4.15 14.7296 5.04543 15.625 6.15 15.625H15.4833L8.62421 9.96727C7.86245 9.33894 6.75613 9.36059 6.01955 10.0183L4.15 11.6875V13.625Z" fill="white"/>
<path fill-rule="evenodd" clip-rule="evenodd" d="M15.4833 6.375C15.4833 5.27043 14.5879 4.375 13.4833 4.375H6.15C5.04543 4.375 4.15 5.27043 4.15 6.375V11.6875L6.01955 10.0183C6.75613 9.36059 7.86245 9.33894 8.62421 9.96727L15.4833 15.625V6.375ZM10.4229 8.59998C9.95106 8.13157 9.95106 7.36843 10.4229 6.90002C10.8899 6.43648 11.6434 6.43648 12.1104 6.90002C12.5823 7.36843 12.5823 8.13157 12.1104 8.59998C11.6434 9.06352 10.8899 9.06352 10.4229 8.59998Z" fill="white"/>
<path d="M12.1104 6.90002C11.6434 6.43648 10.8899 6.43648 10.4229 6.90002C9.95106 7.36843 9.95106 8.13157 10.4229 8.59998C10.8899 9.06352 11.6434 9.06352 12.1104 8.59998C12.5823 8.13157 12.5823 7.36843 12.1104 6.90002Z" fill="white"/>
<path fill-rule="evenodd" clip-rule="evenodd" d="M0.75 3C0.75 1.89543 1.64543 1 2.75 1H32.75C33.8546 1 34.75 1.89543 34.75 3V17C34.75 18.1046 33.8546 19 32.75 19H2.75C1.64543 19 0.75 18.1046 0.75 17V3ZM4.15 6.375C4.15 5.27043 5.04543 4.375 6.15 4.375H13.4833C14.5879 4.375 15.4833 5.27043 15.4833 6.375V15.625H6.15C5.04543 15.625 4.15 14.7296 4.15 13.625V11.6875V6.375Z" fill="#FFF6FC"/>
<path d="M15.4833 15.625V6.375C15.4833 5.27043 14.5879 4.375 13.4833 4.375H6.15C5.04543 4.375 4.15 5.27043 4.15 6.375V11.6875M15.4833 15.625H6.15C5.04543 15.625 4.15 14.7296 4.15 13.625V11.6875M15.4833 15.625L8.62421 9.96727C7.86245 9.33894 6.75613 9.3606 6.01955 10.0183L4.15 11.6875M18.75 11H29.75M18.75 13H29.75M18.75 15H29.75M12.1104 8.59998V8.59998C11.6434 9.06352 10.8899 9.06352 10.4229 8.59998V8.59998C9.95106 8.13157 9.95106 7.36843 10.4229 6.90002V6.90002C10.8899 6.43648 11.6434 6.43648 12.1104 6.90002V6.90002C12.5823 7.36843 12.5823 8.13157 12.1104 8.59998ZM2.75 19H32.75C33.8546 19 34.75 18.1046 34.75 17V3C34.75 1.89543 33.8546 1 32.75 1H2.75C1.64543 1 0.75 1.89543 0.75 3V17C0.75 18.1046 1.64543 19 2.75 19Z" stroke="#CE2A92" stroke-linecap="round" stroke-linejoin="round"/>
</svg>
