<svg width="36" height="36" viewBox="0 0 36 36" fill="none" xmlns="http://www.w3.org/2000/svg">
<path d="M6 5.30769C6 4.03319 7.07452 3 8.4 3H27.6C28.9255 3 30 4.03319 30 5.30769V30.6923C30 31.9668 28.9255 33 27.6 33H8.4C7.07452 33 6 31.9668 6 30.6923V5.30769Z" fill="#FBF7FE"/>
<path d="M10.421 24.875H25.5789C26.6253 24.875 27.4736 25.7144 27.4736 26.75C27.4736 27.7855 26.6253 28.625 25.5789 28.625H10.421C9.37457 28.625 8.52627 27.7855 8.52627 26.75C8.52627 25.7144 9.37457 24.875 10.421 24.875Z" fill="white"/>
<path fill-rule="evenodd" clip-rule="evenodd" d="M18 22.6154C22.6392 22.6154 26.4 18.9992 26.4 14.5385C26.4 10.0777 22.6392 6.46154 18 6.46154C13.3608 6.46154 9.6 10.0777 9.6 14.5385C9.6 18.9992 13.3608 22.6154 18 22.6154ZM20.8351 11.236C21.1033 11.341 21.347 11.4949 21.5523 11.689C21.7576 11.8829 21.9205 12.1132 22.0317 12.3666C22.1428 12.6201 22.2 12.8918 22.2 13.1661C22.2 13.4404 22.1428 13.7121 22.0317 13.9656C21.9205 14.219 21.7576 14.4493 21.5523 14.6432L17.9999 18L14.4475 14.6432C14.0329 14.2515 13.8 13.7201 13.8 13.1661C13.8 12.6121 14.0329 12.0807 14.4475 11.689C14.8621 11.2972 15.4244 11.0771 16.0107 11.0771C16.597 11.0771 17.1593 11.2972 17.5739 11.689L17.9999 12.0915L18.4259 11.689C18.6311 11.4949 18.8748 11.341 19.143 11.236C19.4112 11.131 19.6987 11.0769 19.9891 11.0769C20.2794 11.0769 20.5669 11.131 20.8351 11.236Z" fill="white"/>
<path d="M21.5523 11.689C21.347 11.4949 21.1033 11.341 20.8351 11.236C20.5669 11.131 20.2794 11.0769 19.9891 11.0769C19.6987 11.0769 19.4112 11.131 19.143 11.236C18.8748 11.341 18.6311 11.4949 18.4259 11.689L17.9999 12.0915L17.5739 11.689C17.1593 11.2972 16.597 11.0771 16.0107 11.0771C15.4244 11.0771 14.8621 11.2972 14.4475 11.689C14.0329 12.0807 13.8 12.6121 13.8 13.1661C13.8 13.7201 14.0329 14.2515 14.4475 14.6432L17.9999 18L21.5523 14.6432C21.7576 14.4493 21.9205 14.219 22.0317 13.9656C22.1428 13.7121 22.2 13.4404 22.2 13.1661C22.2 12.8918 22.1428 12.6201 22.0317 12.3666C21.9205 12.1132 21.7576 11.8829 21.5523 11.689Z" fill="white"/>
<path d="M6 5.30769C6 4.03319 7.07452 3 8.4 3H27.6C28.9255 3 30 4.03319 30 5.30769V30.6923C30 31.9668 28.9255 33 27.6 33H8.4C7.07452 33 6 31.9668 6 30.6923V5.30769Z" stroke="#8628D9"/>
<path d="M10.421 24.875H25.5789C26.6253 24.875 27.4736 25.7144 27.4736 26.75C27.4736 27.7855 26.6253 28.625 25.5789 28.625H10.421C9.37457 28.625 8.52627 27.7855 8.52627 26.75C8.52627 25.7144 9.37457 24.875 10.421 24.875Z" stroke="#8628D9"/>
<path fill-rule="evenodd" clip-rule="evenodd" d="M18 22.6154C22.6392 22.6154 26.4 18.9992 26.4 14.5385C26.4 10.0777 22.6392 6.46154 18 6.46154C13.3608 6.46154 9.6 10.0777 9.6 14.5385C9.6 18.9992 13.3608 22.6154 18 22.6154ZM20.8351 11.236C21.1033 11.341 21.347 11.4949 21.5523 11.689C21.7576 11.8829 21.9205 12.1132 22.0317 12.3666C22.1428 12.6201 22.2 12.8918 22.2 13.1661C22.2 13.4404 22.1428 13.7121 22.0317 13.9656C21.9205 14.219 21.7576 14.4493 21.5523 14.6432L17.9999 18L14.4475 14.6432C14.0329 14.2515 13.8 13.7201 13.8 13.1661C13.8 12.6121 14.0329 12.0807 14.4475 11.689C14.8621 11.2972 15.4244 11.0771 16.0107 11.0771C16.597 11.0771 17.1593 11.2972 17.5739 11.689L17.9999 12.0915L18.4259 11.689C18.6311 11.4949 18.8748 11.341 19.143 11.236C19.4112 11.131 19.6987 11.0769 19.9891 11.0769C20.2794 11.0769 20.5669 11.131 20.8351 11.236Z" stroke="#8628D9"/>
<path d="M21.5523 11.689C21.347 11.4949 21.1033 11.341 20.8351 11.236C20.5669 11.131 20.2794 11.0769 19.9891 11.0769C19.6987 11.0769 19.4112 11.131 19.143 11.236C18.8748 11.341 18.6311 11.4949 18.4259 11.689L17.9999 12.0915L17.5739 11.689C17.1593 11.2972 16.597 11.0771 16.0107 11.0771C15.4244 11.0771 14.8621 11.2972 14.4475 11.689C14.0329 12.0807 13.8 12.6121 13.8 13.1661C13.8 13.7201 14.0329 14.2515 14.4475 14.6432L17.9999 18L21.5523 14.6432C21.7576 14.4493 21.9205 14.219 22.0317 13.9656C22.1428 13.7121 22.2 13.4404 22.2 13.1661C22.2 12.8918 22.1428 12.6201 22.0317 12.3666C21.9205 12.1132 21.7576 11.8829 21.5523 11.689Z" stroke="#8628D9"/>
</svg>
