<svg width="37" height="36" viewBox="0 0 37 36" fill="none" xmlns="http://www.w3.org/2000/svg">
<g clip-path="url(#clip0_81_463)">
<path d="M17.3535 17.8705C17.2588 17.956 17.1387 17.9999 17.0176 17.9999C16.9316 17.9999 16.8457 17.978 16.7676 17.933C16.5791 17.8242 16.4834 17.6064 16.5293 17.3945L17.0566 14.9536L15.3799 13.1039C15.2334 12.9428 15.208 12.706 15.3174 12.518C15.4248 12.33 15.6455 12.2314 15.8555 12.2792L18.2959 12.8066L20.1465 11.1293C20.3076 10.9828 20.543 10.9579 20.7324 11.0668C20.9209 11.1757 21.0166 11.3935 20.9707 11.6054L20.4434 14.0463L22.1201 15.8959C22.2666 16.0571 22.292 16.2939 22.1826 16.4819C22.0742 16.6699 21.8565 16.7665 21.6445 16.7206L19.2041 16.1933L17.3535 17.8705Z" fill="#893DE7"/>
<path opacity="0.1" d="M19.9785 31.9349L19.001 34.2157L21.2783 33.2421L21.2935 33.227L19.9917 31.9219L19.9785 31.9349Z" fill="#893DE7"/>
<path opacity="0.1" d="M30.7962 21.1456L20.6997 31.217L22.0016 32.5221L32.098 22.4507L30.7962 21.1456Z" fill="#893DE7"/>
<path opacity="0.1" d="M32.1768 19.77L31.5038 20.4412L32.8076 21.7443L33.4805 21.0732C33.6543 20.8994 33.75 20.668 33.75 20.4219C33.75 20.1758 33.6543 19.9438 33.4805 19.7695C33.1309 19.4228 32.5244 19.4214 32.1768 19.77Z" fill="#893DE7"/>
<path opacity="0.1" d="M18.4961 30.5884L29.7499 19.3655V19.25C29.4736 19.2499 29.25 19.0263 29.25 18.75V11.2496C29.25 10.9733 29.4736 10.7497 29.7499 10.7496V10.5739L26.4326 13.582C26.1357 13.8516 25.751 14 25.3506 14C25.0713 14 24.7939 13.9263 24.5498 13.7866C23.9404 13.4385 23.6289 12.7432 23.7734 12.0557L24.7422 7.57422L22.862 5.5H22.7495C22.7495 5.77637 22.5259 6 22.2495 6H6.75C4.82031 6 3.25 7.57031 3.25 9.5V28.5C3.25 30.4297 4.82031 32 6.75 32H17.0192C17.2955 32 17.5192 32.2236 17.5192 32.5H17.5601L18.1777 31.0586C18.2549 30.8794 18.3613 30.7227 18.4961 30.5884ZM5.75 19.0005H11.75C12.0264 19.0005 12.25 19.2241 12.25 19.5005C12.25 19.7769 12.0264 20.0005 11.75 20.0005H5.75C5.47363 20.0005 5.25 19.7769 5.25 19.5005C5.25 19.2241 5.47363 19.0005 5.75 19.0005ZM10.75 28.0015H5.75C5.47363 28.0015 5.25 27.7778 5.25 27.5015C5.25 27.2251 5.47363 27.0015 5.75 27.0015H10.75C11.0264 27.0015 11.25 27.2251 11.25 27.5015C11.25 27.7778 11.0264 28.0015 10.75 28.0015ZM13.75 24.001H5.75C5.47363 24.001 5.25 23.7774 5.25 23.501C5.25 23.2246 5.47363 23.001 5.75 23.001H13.75C14.0264 23.001 14.25 23.2246 14.25 23.501C14.25 23.7774 14.0264 24.001 13.75 24.001ZM17.0176 19C16.7559 19 16.4971 18.9307 16.2695 18.7998C15.7012 18.4717 15.4131 17.8223 15.5518 17.1826L15.9707 15.2446L14.6387 13.7759C14.1983 13.2905 14.1231 12.5825 14.4531 12.0151C14.7148 11.5566 15.2129 11.2671 15.749 11.2671C15.8594 11.2671 15.9697 11.2798 16.0781 11.3042L18.0049 11.7207L19.4746 10.3887C19.75 10.1382 20.1084 9.99951 20.4815 9.99951C20.7442 9.99951 21.0029 10.0689 21.2305 10.1997C21.7988 10.5283 22.0869 11.1777 21.9482 11.8174L21.5293 13.7554L22.8613 15.2241C23.3018 15.7095 23.377 16.4175 23.0469 16.9849C22.7822 17.4443 22.2842 17.7319 21.75 17.7319C21.6436 17.7319 21.5371 17.7207 21.4326 17.6982L19.4951 17.2793L18.0254 18.6113C17.7471 18.8628 17.3897 19 17.0176 19Z" fill="#893DE7"/>
<path opacity="0.1" d="M30.6523 5.69824L31.5137 1.71338L28.4912 4.45361C28.3408 4.58642 28.1416 4.63965 27.9551 4.59863L23.9629 3.73633L26.7031 6.75928C26.833 6.90528 26.8867 7.10157 26.8506 7.28858L26.8477 7.29883L25.9853 11.2871L29.0088 8.54639C29.1533 8.41651 29.3535 8.36035 29.5449 8.40137L33.5371 9.26416L30.7969 6.24072C30.6641 6.09765 30.6094 5.89355 30.6523 5.69824Z" fill="#893DE7"/>
<path opacity="0.1" d="M19.4121 14.0864L19.665 12.9155L18.7773 13.7202C18.6572 13.8281 18.4922 13.8716 18.3359 13.8384L17.166 13.5854L17.9697 14.4722C18.0781 14.5918 18.1221 14.7563 18.0879 14.9136L17.8349 16.0845L18.7226 15.2798C18.8418 15.1714 19.0049 15.1284 19.1641 15.1616L20.334 15.4146L19.5303 14.5278C19.4219 14.4082 19.3779 14.2437 19.4121 14.0864Z" fill="#893DE7"/>
<path d="M10.75 27.0015H5.75C5.47363 27.0015 5.25 27.2251 5.25 27.5015C5.25 27.7778 5.47363 28.0015 5.75 28.0015H10.75C11.0264 28.0015 11.25 27.7778 11.25 27.5015C11.25 27.2251 11.0264 27.0015 10.75 27.0015Z" fill="#893DE7"/>
<path d="M13.75 23.001H5.75C5.47363 23.001 5.25 23.2246 5.25 23.501C5.25 23.7773 5.47363 24.001 5.75 24.001H13.75C14.0264 24.001 14.25 23.7773 14.25 23.501C14.25 23.2246 14.0264 23.001 13.75 23.001Z" fill="#893DE7"/>
<path d="M31.4697 19.0625L19.2031 31.2954C19.1582 31.3404 19.1221 31.3941 19.0967 31.4527L17.7568 34.5801C17.6768 34.7676 17.7187 34.9854 17.8633 35.1299L18.0859 35.353C18.1816 35.4492 18.3096 35.5 18.4395 35.5C18.5059 35.5 18.5723 35.4868 18.6358 35.46L21.7598 34.124C21.8184 34.0986 21.8711 34.063 21.917 34.0181L34.1875 21.7808C34.5498 21.418 34.75 20.9351 34.75 20.4219C34.75 19.9087 34.5508 19.4263 34.1865 19.0625C33.46 18.3369 32.1963 18.3369 31.4697 19.0625ZM21.2783 33.2422L19.001 34.2158L19.9785 31.9351L19.9917 31.922L21.2935 33.2271L21.2783 33.2422ZM22.001 32.5216L20.6991 31.2165L30.7958 21.1473L32.0996 22.4504L22.001 32.5216ZM33.4805 21.0733L32.8076 21.7443L31.5038 20.4412L32.1768 19.7701C32.5244 19.4214 33.1309 19.4229 33.4805 19.7696C33.6543 19.9439 33.75 20.1758 33.75 20.4219C33.75 20.668 33.6543 20.8994 33.4805 21.0733Z" fill="#893DE7"/>
<path d="M5.75 20.0005H11.75C12.0264 20.0005 12.25 19.7769 12.25 19.5005C12.25 19.2241 12.0264 19.0005 11.75 19.0005H5.75C5.47363 19.0005 5.25 19.2241 5.25 19.5005C5.25 19.7769 5.47363 20.0005 5.75 20.0005Z" fill="#893DE7"/>
<path d="M22.1826 16.4819C22.292 16.2939 22.2666 16.0571 22.1201 15.8959L20.4434 14.0463L20.9707 11.6054C21.0166 11.3935 20.9209 11.1757 20.7324 11.0668C20.543 10.9579 20.3076 10.9828 20.1465 11.1293L18.2959 12.8066L15.8555 12.2792C15.6455 12.2314 15.4248 12.33 15.3174 12.518C15.208 12.706 15.2334 12.9428 15.3799 13.1039L17.0566 14.9536L16.5293 17.3945C16.4834 17.6064 16.5791 17.8242 16.7676 17.933C16.8457 17.978 16.9316 17.9999 17.0176 17.9999C17.1387 17.9999 17.2588 17.956 17.3535 17.8705L19.2041 16.1933L21.6445 16.7206C21.8564 16.7665 22.0742 16.6699 22.1826 16.4819ZM19.1641 15.1616C19.0049 15.1284 18.8418 15.1713 18.7227 15.2797L17.835 16.0844L18.0879 14.9135C18.1221 14.7563 18.0781 14.5917 17.9697 14.4721L17.166 13.5854L18.3359 13.8383C18.4922 13.8715 18.6572 13.8281 18.7773 13.7201L19.665 12.9155L19.4121 14.0864C19.3779 14.2436 19.4219 14.4081 19.5303 14.5278L20.334 15.4145L19.1641 15.1616Z" fill="#893DE7"/>
<path d="M29.7501 10.7495H29.7499C29.4738 10.7495 29.25 10.9733 29.25 11.2494V18.7501C29.25 19.0261 29.4738 19.2499 29.7499 19.2499H29.7501C30.0262 19.2499 30.25 19.0261 30.25 18.7501V11.2494C30.25 10.9733 30.0262 10.7495 29.7501 10.7495Z" fill="#893DE7"/>
<path d="M17.0192 32H6.75C4.82031 32 3.25 30.4297 3.25 28.5V9.5C3.25 7.57031 4.82031 6 6.75 6H22.2495C22.5259 6 22.7495 5.77637 22.7495 5.5C22.7495 5.22363 22.5259 5 22.2495 5H6.75C4.26855 5 2.25 7.01855 2.25 9.5V28.5C2.25 30.9814 4.26855 33 6.75 33H17.0192C17.2955 33 17.5192 32.7764 17.5192 32.5C17.5192 32.2236 17.2955 32 17.0192 32Z" fill="#893DE7"/>
<path d="M35.0908 9.48864L31.6719 5.71667L32.7461 0.743037C32.8037 0.482296 32.6875 0.216667 32.456 0.0823965C32.2256 -0.0509035 31.9355 -0.0211235 31.7392 0.158567L27.9678 3.57849L22.9912 2.50281C22.7256 2.44715 22.4648 2.56433 22.332 2.79529C22.1982 3.02722 22.2295 3.31531 22.4092 3.51111L25.8281 7.28308L24.752 12.2611C24.6973 12.5214 24.8145 12.786 25.0459 12.9183C25.1416 12.973 25.2461 12.9999 25.3506 12.9999C25.499 12.9999 25.6455 12.9457 25.7608 12.8412L29.5322 9.42127L34.5088 10.4969C34.7734 10.5526 35.0332 10.4359 35.167 10.2054C35.3008 9.97499 35.2705 9.68737 35.0908 9.48864ZM29.5449 8.40124C29.3535 8.36022 29.1533 8.41638 29.0088 8.54626L25.9853 11.287L26.8476 7.2987L26.8506 7.28845C26.8867 7.10144 26.833 6.90515 26.7031 6.75915L23.9629 3.7362L27.9551 4.5985C28.1416 4.63952 28.3408 4.58629 28.4912 4.45348L31.5137 1.71325L30.6523 5.69811C30.6094 5.89342 30.6641 6.09752 30.7969 6.24059L33.5371 9.26403L29.5449 8.40124Z" fill="#893DE7"/>
</g>
<defs>
<clipPath id="clip0_81_463">
<rect width="36" height="36" fill="white" transform="translate(0.25)"/>
</clipPath>
</defs>
</svg>
